PathFileType	4	(X/Y/Z)	C:\Users\chris\Documents\GitHub\baseballds\vids\pitch4_Sports2D\pitch4_Sports2D_m_person00.trc
DataRate	CameraRate	NumFrames	NumMarkers	Units	OrigDataRate	OrigDataStartFrame	OrigNumFrames
30	30	9	22	m	30	0	238
Frame#	Time	Hip			RHip			RKnee			RAnkle			RBigToe			RSmallToe			RHeel			LHip			LKnee			LAnkle			LBigToe			LSmallToe			LHeel			Neck			Head			Nose			RShoulder			RElbow			RWrist			LShoulder			LElbow			LWrist		
		X1	Y1	Z1	X2	Y2	Z2	X3	Y3	Z3	X4	Y4	Z4	X5	Y5	Z5	X6	Y6	Z6	X7	Y7	Z7	X8	Y8	Z8	X9	Y9	Z9	X10	Y10	Z10	X11	Y11	Z11	X12	Y12	Z12	X13	Y13	Z13	X14	Y14	Z14	X15	Y15	Z15	X16	Y16	Z16	X17	Y17	Z17	X18	Y18	Z18	X19	Y19	Z19	X20	Y20	Z20	X21	Y21	Z21	X22	Y22	Z22
0	0.0	0.9897590158376194	0.9535940161896518	0.0	1.0216937309142642	0.9096086288623714	0.0	0.888146233724309	0.5382758405753701	0.0	0.6158090228607517	0.2165967100567892	0.0	0.7711395275312639	0.06194800269462384	0.0	0.7255315272630894	0.05872761413673979	0.0	0.5470294452664586	0.19003513517552525	0.0	0.9485725781432526	0.9483274902649018	0.0	0.7898875259309255	0.6129669380311727	0.0	0.6316108836150883	0.33095307196064977	0.0	0.7924278558734755	0.20783242459834256	0.0	0.7672899922924744	0.24380594185931861	0.0	0.560782713571879	0.3004722330943812	0.0	1.337508861887817	1.4301698270212309	0.0	1.5038106325374916	1.6013945763120168	0.0	1.4981607911651829	1.4434006128483368	0.0	1.2618507787483235	1.348390086576046	0.0	1.093747774375409	1.100128757929363	0.0	1.113483813592805	0.8330439191298304	0.0	1.2166503040138874	1.3985175380365895	0.0	1.042080364052122	1.1483857130694202	0.0	1.0393804314283048	0.9014188622699848	0.0
1	0.03333333333333333	0.9916902350507437	0.9500117989628944	0.0	1.0174466439377123	0.9065400138675082	0.0	0.8886395887410762	0.5371038841844054	0.0	0.6198127747263373	0.22278903877923423	0.0	0.7627462561344048	0.06631574991932097	0.0	0.7150144240300618	0.06520657173947716	0.0	0.5496899475209791	0.19087862737066333	0.0	0.9555147150672672	0.9389145608289879	0.0	0.791334364661395	0.613919418642187	0.0	0.6320824787255798	0.32904377177895944	0.0	0.7920255065381638	0.19078888142921244	0.0	0.7697180621824748	0.2253701569336254	0.0	0.5624222179863502	0.30588643663201504	0.0	1.3392904695640804	1.4312798202587316	0.0	1.4981546246989523	1.6032229977958372	0.0	1.5036847948588465	1.4465499482351458	0.0	1.2674786436489938	1.3521245728609168	0.0	1.0960314457256495	1.104056227636821	0.0	1.112053408079553	0.8368033575258261	0.0	1.2234005632634695	1.401776533149206	0.0	1.0480875376499619	1.150408197924077	0.0	1.0504608920355278	0.8995177891663076	0.0
2	0.06666666666666667	0.9933339022468358	0.9476170651558924	0.0	1.0156328381058595	0.9070633538537128	0.0	0.8878956875073573	0.5364776668912477	0.0	0.622452106187012	0.22384785375067365	0.0	0.7605458799279946	0.06645406112122391	0.0	0.712861987719478	0.0668491884606483	0.0	0.5504164333684924	0.18947829023487556	0.0	0.9576855559295365	0.9372063294111681	0.0	0.7907144826793511	0.6140599765786237	0.0	0.6310725990449909	0.32454460826173603	0.0	0.7917994297431474	0.17874743959958928	0.0	0.7706696398007956	0.21279391280152615	0.0	0.5614418640800858	0.30489316273192485	0.0	1.340126278207655	1.431587645796009	0.0	1.4946546699019938	1.6033486102134242	0.0	1.5058539908508641	1.447869743591656	0.0	1.2697184908247956	1.354049284390412	0.0	1.096080402145172	1.1063686833350408	0.0	1.1105356427477235	0.8369248699608836	0.0	1.2251644144592706	1.4037213652480809	0.0	1.0489146285500361	1.1531152841765564	0.0	1.057078949733766	0.897628746132242	0.0
3	0.1	0.9943764481066542	0.9460977007882408	0.0	1.0159278589553977	0.9103609149036387	0.0	0.8855082724410251	0.5361442127752907	0.0	0.6226351027178655	0.21937631377575714	0.0	0.7631733383326832	0.06175101187595679	0.0	0.7158976793866749	0.06332229170399266	0.0	0.548771207113337	0.18573869545979646	0.0	0.956023737708481	0.9422627979182568	0.0	0.7874006804026222	0.6128138571879439	0.0	0.6291945960289811	0.3173414551319666	0.0	0.7932263552557908	0.17209780673001246	0.0	0.770600022703403	0.20600383368597364	0.0	0.5581968836667127	0.29729016054784857	0.0	1.340432673592185	1.4313708452942122	0.0	1.4934791092366397	1.6018725446505215	0.0	1.5048338848254563	1.4477660734139224	0.0	1.2687803970096256	1.356121909600413	0.0	1.0947111188122443	1.105991914977842	0.0	1.10875413411248	0.8327765315311143	0.0	1.2232914626386107	1.4041891035740555	0.0	1.0459906584141283	1.1539281095074652	0.0	1.0591875757135152	0.8950772867621616	0.0
4	0.13333333333333333	0.9950920689793094	0.9438355639756094	0.0	1.0168845161640905	0.9113694275169302	0.0	0.8839529639297637	0.5362650388841863	0.0	0.6214447766225752	0.21521965384525013	0.0	0.7639161206345445	0.05655010643187513	0.0	0.7154218632592536	0.0592031904988148	0.0	0.546286407394885	0.1827348235487479	0.0	0.9555398638214804	0.9451648418336621	0.0	0.7846115429128546	0.6108528370277951	0.0	0.6289990356640616	0.3136193579447536	0.0	0.7959475759732577	0.1716327990873023	0.0	0.7701129217137481	0.2061318126756281	0.0	0.5566302821044777	0.29183153417758717	0.0	1.3403181849887018	1.4307609649805977	0.0	1.4934645167647396	1.5998287733057202	0.0	1.5025616672172388	1.4470094633875557	0.0	1.2660995753244255	1.35789278058975	0.0	1.0937608766974092	1.1030474667549601	0.0	1.1078509005225978	0.8283189102800113	0.0	1.2218794219411002	1.402948794289204	0.0	1.0449841907862243	1.1496961690371696	0.0	1.0590801940100476	0.891803059575259	0.0
5	0.16666666666666666	0.9958224157822104	0.9407147098130721	0.0	1.017388478736921	0.9075500620863437	0.0	0.8853172718039992	0.5370124712111668	0.0	0.6206303927493014	0.21548579587649788	0.0	0.7603551604343232	0.054773709399946	0.0	0.7101375829691724	0.0580157135480041	0.0	0.5445588645793716	0.1826281956233461	0.0	0.9581983138119718	0.9409104693660374	0.0	0.785576526042762	0.6099763675229685	0.0	0.6311227808108045	0.3179688262269332	0.0	0.7968160959137804	0.1767552988899668	0.0	0.768702439503894	0.2135185393192677	0.0	0.5590230203073301	0.295477385314797	0.0	1.339304572181769	1.4294336283325588	0.0	1.4936918328294966	1.5983792897343665	0.0	1.5005035578345145	1.445769074992432	0.0	1.262397346638225	1.3570025786905624	0.0	1.0932386695139962	1.0996965109941783	0.0	1.1086607484698459	0.827421577064471	0.0	1.22151996048521	1.400027223273256	0.0	1.047677522327079	1.1427677979218984	0.0	1.0589309102789912	0.888835996085464	0.0
6	0.2	0.9960926330624676	0.9387744727206228	0.0	1.0168646601895346	0.9029341718292934	0.0	0.8879339860048434	0.537584851880745	0.0	0.6197039938948872	0.21630254282588116	0.0	0.7566246618335236	0.055059673815217466	0.0	0.706045087137141	0.0579673651454017	0.0	0.5438356681056851	0.18325128897625123	0.0	0.9604823902467269	0.9349549435891418	0.0	0.7880938424525041	0.6106906076068335	0.0	0.6331773185880682	0.32475141712288425	0.0	0.7949549353666895	0.18199514848170278	0.0	0.7670738548482154	0.22088265447734698	0.0	0.5626601903766887	0.3028904956225301	0.0	1.3372905415711622	1.4273294343167275	0.0	1.4938513048687012	1.598577726711548	0.0	1.4990232769115308	1.4443908340624405	0.0	1.2580806958520478	1.3547443898217781	0.0	1.0917093231125434	1.0980227931809097	0.0	1.110122462863534	0.8284589933095017	0.0	1.2203653258012581	1.3963276169376686	0.0	1.0507237658668716	1.1384164256512972	0.0	1.0595508075026183	0.8869410987507004	0.0
7	0.23333333333333334	0.9956456541319075	0.9384870341136997	0.0	1.0154114332143906	0.9013984088495854	0.0	0.8900081836250148	0.5370811297594936	0.0	0.6180725070335429	0.21387384302005166	0.0	0.7554276173690766	0.054282499938724776	0.0	0.7058512867637795	0.056314809861080554	0.0	0.543707287558439	0.18252886323336953	0.0	0.959901625181958	0.9328203650790878	0.0	0.7885798532866949	0.6114702220137161	0.0	0.6337159527105997	0.3276348556732571	0.0	0.793226580920073	0.184594938694611	0.0	0.7669287543415753	0.22344584625221656	0.0	0.5645909266845088	0.30650551832239953	0.0	1.3345258228301582	1.4249946354979188	0.0	1.4938279130419432	1.5996736415510358	0.0	1.4981650780996125	1.4425259667988959	0.0	1.2531424788281584	1.3536316923955	0.0	1.088209154520884	1.0975617998355978	0.0	1.1113027301875051	0.828155534502463	0.0	1.218824714976121	1.3921913347889041	0.0	1.0517918458478506	1.136444723340149	0.0	1.0598256141149938	0.8853506026426333	0.0
8	0.26666666666666666	0.9951100129802487	0.9370232757545718	0.0	1.013217117831871	0.9003134412105241	0.0	0.8916400846917546	0.5351058772262289	0.0	0.6174523138797244	0.2111239523367152	0.0	0.7550496755686527	0.051823080686250106	0.0	0.7062264759714248	0.05377604201698401	0.0	0.5432814365562849	0.1815496616768852	0.0	0.9592448317391619	0.9307985464095107	0.0	0.7876105005294569	0.6108732909253497	0.0	0.632844204373791	0.3279235554601575	0.0	0.7928155840159151	0.1859649361942568	0.0	0.767306103355965	0.22474601725304122	0.0	0.5641954303948429	0.3071997771150611	0.0	1.3318234436625966	1.4236725983061216	0.0	1.492685410317308	1.5990958115548255	0.0	1.498745450246114	1.4395335280294714	0.0	1.2476937624253934	1.353753462095118	0.0	1.0833886199480274	1.097260257389744	0.0	1.1118519033178722	0.8268115890419179	0.0	1.2187220919888186	1.3873980965611301	0.0	1.0522283357096311	1.1320617461618356	0.0	1.0590678141574192	0.8821650201221535	0.0
